<svg width="80" height="80" viewBox="0 0 80 80" fill="none" xmlns="http://www.w3.org/2000/svg">
<g clip-path="url(#clip0_39_7521)">
<rect width="80" height="80" rx="40" fill="#F3F4F6"/>
<path d="M40 50C48.2843 50 55 43.2843 55 35C55 26.7157 48.2843 20 40 20C31.7157 20 25 26.7157 25 35C25 43.2843 31.7157 50 40 50Z" fill="white"/>
<path d="M40.0005 57.5C24.9705 57.5 12.7305 67.58 12.7305 80C12.7305 80.84 13.3905 81.5 14.2305 81.5H65.7705C66.6105 81.5 67.2705 80.84 67.2705 80C67.2705 67.58 55.0305 57.5 40.0005 57.5Z" fill="white"/>
</g>
<defs>
<clipPath id="clip0_39_7521">
<rect width="80" height="80" rx="40" fill="white"/>
</clipPath>
</defs>
</svg>
